<svg width="250" height="250" viewBox="0 0 250 250" fill="none" xmlns="http://www.w3.org/2000/svg">
<path d="M239.344 53.2913C239.344 49.1886 236.017 45.8622 231.915 45.8622H7.55119C3.44849 45.8622 0.12207 49.1867 0.12207 53.2913V190.403H239.344V53.2913Z" fill="#141B73"/>
<path d="M7.55119 45.8622C3.44849 45.8622 0.12207 49.1867 0.12207 53.2913V190.403H119.612V45.8622H7.55119Z" fill="#004199"/>
<path d="M144.43 194.26H95.0375C90.9329 194.26 87.6064 197.584 87.6064 201.689V235.449C87.6064 239.552 90.9329 242.878 95.0375 242.878H144.43C148.533 242.878 151.859 239.552 151.859 235.449V201.689C151.859 197.586 148.533 194.26 144.43 194.26Z" fill="#B6BDBF"/>
<path d="M0 180.49V201.689C0 205.791 3.32642 209.118 7.42912 209.118H231.792C235.895 209.118 239.222 205.791 239.222 201.689V180.49H0Z" fill="#DAE3E5"/>
<path d="M170.881 219.421H68.5863C64.4817 219.421 61.1553 222.748 61.1553 226.851V239.244C61.1553 243.347 64.4817 246.674 68.5863 246.674H170.881C174.984 246.674 178.31 243.347 178.31 239.244V226.851C178.31 222.748 174.984 219.421 170.881 219.421Z" fill="#DAE3E5"/>
<path d="M94.1162 151.863H28.6484C24.5457 151.863 21.2192 155.188 21.2192 159.292C21.2192 163.395 24.5457 166.721 28.6484 166.721H94.1162C98.2189 166.721 101.545 163.395 101.545 159.292C101.545 155.188 98.2189 151.863 94.1162 151.863Z" fill="#B2E5FF"/>
<path d="M206.758 151.863H119.734C115.629 151.863 112.303 155.188 112.303 159.292C112.303 163.395 115.629 166.721 119.734 166.721H206.758C210.861 166.721 214.188 163.395 214.188 159.292C214.188 155.188 210.861 151.863 206.758 151.863Z" fill="#66CCFF"/>
<path d="M206.758 124.741H119.734C115.629 124.741 112.303 128.067 112.303 132.17C112.303 136.274 115.629 139.599 119.734 139.599H206.758C210.861 139.599 214.188 136.274 214.188 132.17C214.188 128.067 210.861 124.741 206.758 124.741Z" fill="#66CCFF"/>
<path d="M119.734 114.954H151.358C155.46 114.954 158.787 111.628 158.787 107.525V73.986C158.787 69.8833 155.46 66.5569 151.358 66.5569H119.734C115.629 66.5569 112.303 69.8833 112.303 73.986V107.525C112.303 111.628 115.629 114.954 119.734 114.954Z" fill="#4DA8DA"/>
<path d="M206.759 66.5569H175.135C171.032 66.5569 167.706 69.8833 167.706 73.9879V107.525C167.706 111.628 171.03 114.954 175.135 114.954H206.759C210.861 114.954 214.188 111.628 214.188 107.525V73.9879C214.188 69.8833 210.861 66.5569 206.759 66.5569Z" fill="#3399FF"/>
<path d="M206.076 40.123L204.928 39.9723C196.698 38.8908 190.493 31.8489 190.493 23.5939V17.1032C190.493 9.55772 184.332 3.41797 176.762 3.41797C169.19 3.41797 163.031 9.55772 163.031 17.1032V33.8383H148.011C140.85 33.8383 135.023 39.6442 135.023 46.7815C135.023 47.0619 135.054 47.3404 135.117 47.6131L136.492 53.6079L135.117 59.6027C134.991 60.1482 134.991 60.7166 135.117 61.264L136.492 67.2588L135.117 73.2517C135.054 73.5245 135.023 73.8029 135.023 74.0833V80.9097C135.023 87.4519 140.364 92.7753 146.927 92.7753H186.728C187.081 92.7753 187.432 92.7238 187.773 92.6247L206.637 87.101C208.218 86.6375 209.307 85.1841 209.307 83.5342V43.8061C209.307 41.9407 207.924 40.3652 206.076 40.123Z" fill="#C2C9CC"/>
<path d="M246.284 37.6187H205.591C203.539 37.6187 201.875 39.2819 201.875 41.3323V89.0617C201.875 91.1121 203.539 92.7754 205.591 92.7754H246.284C248.337 92.7754 250 91.1121 250 89.0617V41.3323C250 39.28 248.337 37.6187 246.284 37.6187Z" fill="#0059B2"/>
<path d="M61.428 95.0107H61.3345C46.0681 95.0107 33.6475 107.431 33.6475 122.696V133.44C33.6475 137.543 36.9739 140.871 41.0785 140.871H81.686C85.7887 140.871 89.1151 137.545 89.1151 133.44V122.696C89.1151 107.429 76.6944 95.0107 61.428 95.0107Z" fill="#176EE5"/>
<path d="M61.3824 65.6776C50.5467 65.6776 41.731 74.4686 41.731 85.2718C41.731 96.0769 50.5467 104.866 61.3824 104.866C72.218 104.866 81.0319 96.0769 81.0319 85.2718C81.0319 74.4686 72.218 65.6776 61.3824 65.6776Z" fill="#C2C9CC"/>
<path d="M112.303 159.292C112.303 163.353 115.564 166.649 119.612 166.716V151.869C115.564 151.934 112.303 155.23 112.303 159.292Z" fill="#B2E5FF"/>
<path d="M112.303 132.17C112.303 136.232 115.564 139.526 119.612 139.593V124.746C115.564 124.811 112.303 128.107 112.303 132.17Z" fill="#B2E5FF"/>
<path d="M112.303 73.988V107.525C112.303 111.588 115.564 114.882 119.612 114.948V66.5646C115.564 66.6294 112.303 69.9253 112.303 73.988Z" fill="#4DA8DA"/>
<path d="M95.0375 194.26C90.9329 194.26 87.6064 197.584 87.6064 201.689V235.449C87.6064 239.552 90.9329 242.878 95.0375 242.878H119.612V194.26H95.0375Z" fill="#C2C9CC"/>
<path d="M68.5863 219.421C64.4817 219.421 61.1553 222.748 61.1553 226.851V239.244C61.1553 243.347 64.4817 246.674 68.5863 246.674H119.612V219.421H68.5863Z" fill="#E6EFF2"/>
<path d="M0 180.49V201.689C0 205.791 3.32642 209.118 7.42912 209.118H119.612V180.49H0Z" fill="#E6EFF2"/>
<path d="M209.307 43.8061C209.307 41.9407 207.924 40.3652 206.076 40.123L204.928 39.9723C196.698 38.8908 190.493 31.8489 190.493 23.5939V17.1032C190.493 9.55772 184.332 3.41797 176.762 3.41797C169.19 3.41797 163.031 9.55772 163.031 17.1032V33.8383H148.011C140.85 33.8383 135.023 39.6442 135.023 46.7815C135.023 47.0619 135.054 47.3404 135.117 47.6131L136.492 53.6079L135.117 59.6027C134.991 60.1482 134.991 60.7166 135.117 61.264L136.019 65.197H209.307V43.8061Z" fill="#DAE3E5"/>
<path d="M250 41.3323C250 39.2819 248.337 37.6187 246.284 37.6187H205.591C203.539 37.6187 201.875 39.2819 201.875 41.3323V65.197H250V41.3323Z" fill="#176EE5"/>
</svg>
