<svg width="250" height="250" viewBox="0 0 250 250" fill="none" xmlns="http://www.w3.org/2000/svg">
<path d="M218.327 76.4446C218.327 64.7964 208.851 55.3207 197.201 55.3207H123.009V49.1104C123.009 37.0083 113.161 27.1606 101.055 27.1606H53.4439C41.3398 27.1606 31.4922 37.0064 31.4922 49.1085V83.7917H218.327V76.4446Z" fill="#3399FF"/>
<path d="M171.396 0H78.4244C74.2568 0 70.8789 3.37791 70.8789 7.54547V83.7917C70.8789 87.9593 74.2568 91.3372 78.4244 91.3372H171.394C175.562 91.3372 178.94 87.9593 178.94 83.7917V7.54547C178.94 3.37791 175.562 0 171.396 0V0Z" fill="#DAE3E5"/>
<path d="M123.009 55.3208V49.1124C123.009 37.0083 113.161 27.1626 101.055 27.1626H53.4439C41.3398 27.1626 31.4922 37.0083 31.4922 49.1105V83.7918H124.91V55.3208H123.009Z" fill="#176EE5"/>
<path d="M78.4244 0C74.2568 0 70.8789 3.37791 70.8789 7.54547V83.7917C70.8789 87.9593 74.2568 91.3372 78.4244 91.3372H124.91V0H78.4244Z" fill="#E6EFF2"/>
<path d="M124.91 239.618C120.743 239.618 117.365 236.24 117.365 232.073V188.839C117.365 184.671 120.743 181.293 124.91 181.293C129.078 181.293 132.456 184.671 132.456 188.839V232.073C132.456 236.24 129.078 239.618 124.91 239.618V239.618Z" fill="#DAE3E5"/>
<path d="M31.4941 83.7917V173.277C31.4941 184.019 40.2336 192.759 50.9777 192.759H198.847C209.587 192.759 218.327 184.019 218.327 173.279V83.7917H31.4941Z" fill="#176EE5"/>
<path d="M220.291 241.728H29.5294C25.3618 241.728 21.9839 238.35 21.9839 234.182C21.9839 230.015 25.3618 226.637 29.5294 226.637H220.291C224.458 226.637 227.836 230.015 227.836 234.182C227.836 238.35 224.458 241.728 220.291 241.728Z" fill="#E6EFF2"/>
<path d="M237.614 234.182C237.614 225.447 230.53 218.365 221.792 218.365C213.055 218.365 205.971 225.447 205.971 234.182C205.971 242.918 213.055 250 221.792 250C230.53 250 237.614 242.918 237.614 234.182V234.182Z" fill="#176EE5"/>
<path d="M43.848 234.182C43.848 225.447 36.7661 218.365 28.0285 218.365C19.2909 218.365 12.207 225.447 12.207 234.182C12.207 242.918 19.2909 250 28.0285 250C36.7661 250 43.848 242.918 43.848 234.182V234.182Z" fill="#3399FF"/>
<path d="M140.732 234.182C140.732 225.447 133.648 218.365 124.91 218.365C116.173 218.365 109.089 225.447 109.089 234.182C109.089 242.918 116.173 250 124.91 250C133.648 250 140.732 242.918 140.732 234.182V234.182Z" fill="#176EE5"/>
<path d="M31.4941 83.7917V173.277C31.4941 184.019 40.2336 192.759 50.9777 192.759H124.91V83.7917H31.4941Z" fill="#3399FF"/>
<path d="M109.089 234.182C109.089 242.918 116.173 250 124.91 250V218.365C116.173 218.365 109.089 225.447 109.089 234.182V234.182Z" fill="#3399FF"/>
<path d="M149.521 66.0934H100.3C96.1323 66.0934 92.7544 62.7155 92.7544 58.5479C92.7544 54.3823 96.1323 51.0024 100.3 51.0024H149.521C153.688 51.0024 157.066 54.3823 157.066 58.5479C157.066 62.7155 153.688 66.0934 149.521 66.0934Z" fill="#176EE5"/>
<path d="M149.521 40.8383H100.3C96.1323 40.8383 92.7544 37.4603 92.7544 33.2928C92.7544 29.1252 96.1323 25.7473 100.3 25.7473H149.521C153.688 25.7473 157.066 29.1252 157.066 33.2928C157.066 37.4603 153.688 40.8383 149.521 40.8383Z" fill="#176EE5"/>
<path d="M100.3 51.0044C96.1323 51.0044 92.7544 54.3823 92.7544 58.5499C92.7544 62.7174 96.1323 66.0953 100.3 66.0953H124.91V51.0044H100.3Z" fill="#3399FF"/>
<path d="M100.3 25.7473C96.1323 25.7473 92.7544 29.1252 92.7544 33.2928C92.7544 37.4603 96.1323 40.8383 100.3 40.8383H124.91V25.7473H100.3Z" fill="#3399FF"/>
<path d="M158.991 115.749C157.576 114.334 155.657 113.539 153.654 113.539H144.573V104.46C144.573 100.292 141.195 96.9143 137.028 96.9143H112.793C108.625 96.9143 105.247 100.292 105.247 104.458V113.539H96.1646C91.9971 113.539 88.6191 116.917 88.6191 121.084V145.315C88.6191 147.316 89.4126 149.235 90.8279 150.65C92.2431 152.065 94.1619 152.861 96.1646 152.861H105.247V161.938C105.247 166.103 108.625 169.483 112.791 169.483H137.028C139.028 169.483 140.947 168.688 142.363 167.273C143.778 165.857 144.573 163.939 144.573 161.938V152.861H153.654C157.822 152.861 161.199 149.483 161.199 145.315V121.084C161.201 119.083 160.406 117.165 158.991 115.749V115.749Z" fill="#141B73"/>
<path d="M112.793 96.9143C108.627 96.9143 105.247 100.292 105.247 104.46V113.539H96.1646C91.999 113.539 88.6191 116.917 88.6191 121.084V145.315C88.6191 147.316 89.4145 149.235 90.8298 150.65C92.2431 152.065 94.1638 152.861 96.1646 152.861H105.247V161.938C105.247 166.103 108.625 169.483 112.793 169.483H124.91V96.9143H112.793Z" fill="#141B73"/>
</svg>
