<svg width="250" height="212" viewBox="0 0 250 212" fill="none" xmlns="http://www.w3.org/2000/svg">
<path d="M201.459 40.1995C199.615 28.5418 194.09 17.813 185.506 9.43216C175.14 -0.688213 161.453 -6.26147 146.965 -6.26147C135.526 -6.26147 124.553 -2.79011 115.23 3.77497C108.694 8.3793 103.304 14.252 99.3326 21.0422C89.1398 14.8185 77.3352 11.4616 65.2865 11.4616C29.2873 11.4616 0 40.7527 0 76.7557C0 112.759 29.2873 142.052 65.2865 142.052H199.052C227.146 142.052 250 119.192 250 91.097C250 63.8087 228.439 41.4622 201.459 40.1995Z" fill="#DAE3E5"/>
<path d="M115.231 3.77489C108.694 8.37923 103.304 14.252 99.3328 21.0421C89.1399 14.8184 77.3354 11.4615 65.2866 11.4615C29.2873 11.4615 0 40.7527 0 76.7558C0 112.759 29.2873 142.052 65.2866 142.052H125V-1.70874C121.592 -0.22673 118.319 1.60051 115.231 3.77489Z" fill="#E6EFF2"/>
<path d="M200.241 104.305C200.241 94.5951 192.369 86.7235 182.659 86.7235H122.354V77.9287C122.354 71.0375 116.77 65.4528 109.879 65.4528H68.3613C61.4719 65.4528 55.8872 71.0375 55.8872 77.9268V112.2H200.241V104.305Z" fill="#0059B2"/>
<path d="M55.8872 107.642V166.087C55.8872 174.031 62.3264 180.47 70.2705 180.47H185.86C193.802 180.47 200.241 174.033 200.241 166.088V107.642H55.8872Z" fill="#176EE5"/>
<path d="M122.354 86.7236V77.9289C122.354 71.0376 116.77 65.4529 109.879 65.4529H68.3613C61.4719 65.4529 55.8872 71.0376 55.8872 77.9269V112.2H125V86.7236H122.354Z" fill="#176EE5"/>
<path d="M55.8872 107.642V166.087C55.8872 174.031 62.3264 180.47 70.2705 180.47H185.86C193.802 180.47 200.241 174.033 200.241 166.088V107.642H55.8872Z" fill="#176EE5"/>
<path d="M55.8872 107.641V166.086C55.8872 174.03 62.3264 180.47 70.2705 180.47H125V107.641H55.8872Z" fill="#3399FF"/>
</svg>
