<svg width="250" height="246" viewBox="0 0 250 246" fill="none" xmlns="http://www.w3.org/2000/svg">
<path d="M0 41.4597V217.933C0 225.458 6.12068 231.578 13.6452 231.578H236.355C243.879 231.578 250 225.458 250 217.933V41.4597H0Z" fill="#141B73"/>
<path d="M0 41.4597V217.933C0 225.458 6.12068 231.578 13.6452 231.578H125V41.4597H0Z" fill="#004199"/>
<path d="M250 24.2936C250 16.7691 243.879 10.6484 236.355 10.6484H13.6452C6.12068 10.6484 0 16.7691 0 24.2936V46.4341H250V24.2936Z" fill="#3399FF"/>
<path d="M203.226 32.2263C203.226 36.2718 199.947 39.5505 195.902 39.5505C191.856 39.5505 188.578 36.2718 188.578 32.2263C188.578 28.1827 191.856 24.9021 195.902 24.9021C199.947 24.9021 203.226 28.1827 203.226 32.2263Z" fill="#203647"/>
<path d="M227.324 32.2263C227.324 36.2718 224.045 39.5505 220 39.5505C215.954 39.5505 212.675 36.2718 212.675 32.2263C212.675 28.1827 215.954 24.9021 220 24.9021C224.045 24.9021 227.324 28.1827 227.324 32.2263Z" fill="#12232E"/>
<path d="M140.24 94.5165L109.814 71.7561C109.774 71.7275 109.732 71.697 109.692 71.6684C106.121 69.0286 101.883 67.6362 97.4294 67.6362H95.2836C91.4937 67.6362 88.3294 70.5278 87.988 74.3005C87.6905 77.6212 84.8371 80.2228 81.4954 80.2228C78.1537 80.2228 75.3022 77.6212 75.0028 74.3024C74.6633 70.5278 71.499 67.6362 67.7091 67.6362H64.6173C60.1121 67.6362 55.8282 69.0629 52.2367 71.7561L21.8106 94.5165C18.7799 96.7843 17.975 100.986 19.9548 104.213L31.8433 123.581C32.9591 125.4 34.813 126.642 36.9207 126.981C39.0283 127.321 41.1779 126.724 42.8086 125.347L48.9389 120.172V151.434C48.9389 155.477 52.2176 158.758 56.2631 158.758H105.785C109.831 158.758 113.11 155.477 113.11 151.434V120.172L119.24 125.347C120.873 126.724 123.02 127.321 125.13 126.981C127.237 126.642 129.091 125.4 130.207 123.581L142.094 104.213C144.074 100.986 143.269 96.7843 140.24 94.5165Z" fill="#4DA8DA"/>
<path d="M217.754 71.1018H155.743C151.697 71.1018 148.418 74.3805 148.418 78.426V106.075C148.418 110.119 151.697 113.399 155.743 113.399H217.754C221.798 113.399 225.079 110.119 225.079 106.075V78.426C225.079 74.3805 221.798 71.1018 217.754 71.1018Z" fill="#007CC7"/>
<path d="M217.754 145.088H155.743C151.697 145.088 148.418 141.809 148.418 137.764C148.418 133.72 151.697 130.439 155.743 130.439H217.754C221.798 130.439 225.079 133.72 225.079 137.764C225.079 141.809 221.798 145.088 217.754 145.088Z" fill="#007CC7"/>
<path d="M217.754 176.778H155.743C151.697 176.778 148.418 173.5 148.418 169.454C148.418 165.409 151.697 162.13 155.743 162.13H217.754C221.798 162.13 225.079 165.409 225.079 169.454C225.079 173.5 221.798 176.778 217.754 176.778Z" fill="#007CC7"/>
<path d="M217.754 207.597H26.1973C22.1518 207.597 18.873 204.317 18.873 200.273C18.873 196.228 22.1518 192.949 26.1973 192.949H217.754C221.798 192.949 225.078 196.228 225.078 200.273C225.078 204.317 221.798 207.597 217.754 207.597Z" fill="#007CC7"/>
<path d="M75.0028 74.3024C74.6633 70.5278 71.499 67.6362 67.7091 67.6362H64.6173C60.1121 67.6362 55.8282 69.0629 52.2367 71.7561L21.8106 94.5165C18.7799 96.7843 17.975 100.986 19.9548 104.213L31.8433 123.581C32.9591 125.4 34.813 126.642 36.9207 126.981C39.0283 127.321 41.1779 126.724 42.8086 125.347L48.9389 120.172V151.434C48.9389 155.477 52.2176 158.758 56.2631 158.758H81.0243V80.1999C77.8905 79.9691 75.2889 77.4648 75.0028 74.3024Z" fill="#4DA8DA"/>
<path d="M26.1973 192.949C22.1518 192.949 18.873 196.228 18.873 200.273C18.873 204.317 22.1518 207.597 26.1973 207.597H125V192.949H26.1973Z" fill="#176EE5"/>
<path d="M13.6452 10.6484C6.12068 10.6484 0 16.7691 0 24.2936V46.4341H125V10.6484H13.6452Z" fill="#66CCFF"/>
<path d="M136.723 161.192L122.454 146.925L126.227 143.152C128.111 141.267 128.823 138.508 128.086 135.946C127.348 133.384 125.277 131.426 122.679 130.832L81.074 121.328C78.6174 120.767 76.0444 121.507 74.2629 123.289C72.4814 125.07 71.7414 127.643 72.3022 130.1L81.8065 171.705C82.3997 174.303 84.3585 176.374 86.9201 177.112C89.4816 177.85 92.2397 177.139 94.126 175.253L97.8969 171.482L112.166 185.749C113.539 187.122 115.403 187.894 117.344 187.894C119.288 187.894 121.149 187.122 122.523 185.749L136.723 171.55C139.582 168.689 139.582 164.053 136.723 161.192Z" fill="#E6EFF2"/>
<path d="M72.3022 130.1L81.8065 171.705C82.3997 174.303 84.3585 176.374 86.9201 177.112C89.4816 177.85 92.2397 177.139 94.126 175.253L97.8969 171.482L112.166 185.749C113.539 187.124 115.403 187.895 117.344 187.895C119.286 187.895 121.149 187.124 122.523 185.751L129.622 178.65L74.2629 123.289C72.4814 125.072 71.7414 127.643 72.3022 130.1V130.1Z" fill="#DAE3E5"/>
<path d="M37.3247 32.2263C37.3247 36.2718 34.046 39.5505 30.0005 39.5505C25.955 39.5505 22.6763 36.2718 22.6763 32.2263C22.6763 28.1827 25.955 24.9021 30.0005 24.9021C34.046 24.9021 37.3247 28.1827 37.3247 32.2263Z" fill="#4DA8DA"/>
</svg>
