<svg width="50" height="50" viewBox="0 0 50 50" fill="none" xmlns="http://www.w3.org/2000/svg">
<g clip-path="url(#clip0)">
<path fill-rule="evenodd" clip-rule="evenodd" d="M37.5 50H12.5C9.18484 49.9999 6.0055 48.6828 3.66133 46.3387C1.31715 43.9945 0.000145029 40.8152 0 37.5L0 12.5C0.000145029 9.18484 1.31715 6.0055 3.66133 3.66133C6.0055 1.31715 9.18484 0.000145029 12.5 0L37.5 0C40.8152 0 43.9946 1.31696 46.3388 3.66117C48.683 6.00537 50 9.18479 50 12.5V37.5C50 40.8152 48.683 43.9946 46.3388 46.3388C43.9946 48.683 40.8152 50 37.5 50Z" fill="#176EE5"/>
<path fill-rule="evenodd" clip-rule="evenodd" d="M23.4375 14.0625H37.5C39.3026 14.0624 41.0362 13.37 42.343 12.1284C43.6498 10.8868 44.4298 9.19082 44.5221 7.39063C44.6143 5.59043 44.0117 3.82356 42.8387 2.45489C41.6657 1.08623 40.0119 0.220298 38.2187 0.0359375C37.9797 0.0226562 37.743 0 37.5 0H12.5C9.18484 0.000145029 6.0055 1.31715 3.66133 3.66133C1.31715 6.0055 0.000145029 9.18484 0 12.5L0 37.5C0.000145034 31.284 2.46949 25.3227 6.86485 20.9273C11.2602 16.532 17.2215 14.0626 23.4375 14.0625" fill="#3399FF"/>
<path fill-rule="evenodd" clip-rule="evenodd" d="M37.5 25C35.0277 25 32.611 25.7331 30.5554 27.1066C28.4998 28.4801 26.8976 30.4324 25.9515 32.7165C25.0054 35.0005 24.7579 37.5139 25.2402 39.9386C25.7225 42.3634 26.913 44.5907 28.6612 46.3388C30.4093 48.087 32.6366 49.2775 35.0614 49.7598C37.4861 50.2421 39.9995 49.9946 42.2836 49.0485C44.5676 48.1024 46.5199 46.5002 47.8934 44.4446C49.2669 42.389 50 39.9723 50 37.5V12.5C50 15.8152 48.683 18.9946 46.3388 21.3388C43.9946 23.683 40.8152 25 37.5 25Z" fill="#0059B2"/>
<path fill-rule="evenodd" clip-rule="evenodd" d="M20.3122 39.3369C20.3123 39.5951 20.2483 39.8494 20.1261 40.0769C20.0038 40.3044 19.8271 40.4981 19.6117 40.6406C19.3962 40.783 19.1488 40.8699 18.8916 40.8933C18.6344 40.9168 18.3754 40.8761 18.1378 40.775C14.5099 39.2014 11.5348 36.4261 9.71341 32.9161C7.89198 29.4061 7.33535 25.3758 8.13722 21.5035C8.93908 17.6312 11.0505 14.1534 14.116 11.6554C17.1816 9.1574 21.0141 7.79176 24.9686 7.78834C28.923 7.78491 32.7579 9.14391 35.8278 11.6366C38.8977 14.1293 41.0151 17.6034 41.8237 21.4743C42.6323 25.3452 42.0826 29.3765 40.2672 32.8896C38.4519 36.4028 35.4817 39.1833 31.8565 40.7631C31.6208 40.8634 31.3639 40.9037 31.1088 40.8805C30.8537 40.8572 30.6083 40.7711 30.3946 40.6298C30.1809 40.4885 30.0056 40.2965 29.8843 40.0708C29.763 39.8452 29.6995 39.593 29.6995 39.3369C29.6872 37.4913 29.6872 35.1563 29.6872 35.1563C29.6872 33.9131 29.1933 32.7208 28.3142 31.8418C28.2166 31.7441 28.1153 31.6513 28.0102 31.5633C27.9822 31.5401 27.9622 31.5087 27.9527 31.4736C27.9432 31.4385 27.9447 31.4013 27.9571 31.3671C27.9695 31.3329 27.9921 31.3034 28.0219 31.2825C28.0517 31.2616 28.0872 31.2504 28.1235 31.2505L28.1247 31.2501C30.1967 31.2501 32.1839 30.427 33.649 28.9618C35.1141 27.4967 35.9372 25.5096 35.9372 23.4376C35.9399 21.7416 35.3881 20.0912 34.366 18.7378C34.6321 17.5493 34.6064 16.314 34.2911 15.1376L34.1583 14.6416C34.1047 14.4415 33.9737 14.2709 33.7943 14.1673C33.6149 14.0637 33.4016 14.0356 33.2015 14.0892L32.7056 14.222C31.6106 14.5154 30.5959 15.0519 29.7368 15.7915C29.2066 15.6805 28.6664 15.6247 28.1247 15.6251H21.8747C21.3332 15.6248 20.793 15.6805 20.263 15.7915C19.4039 15.0519 18.3892 14.5155 17.2942 14.2221L16.7983 14.0893C16.5982 14.0357 16.3849 14.0637 16.2055 14.1673C16.0261 14.2709 15.8951 14.4416 15.8415 14.6417L15.7087 15.1376C15.3935 16.3141 15.3677 17.5493 15.6338 18.7379C14.6115 20.0912 14.0597 21.7416 14.0622 23.4376C14.0622 25.5096 14.8853 27.4967 16.3504 28.9618C17.8156 30.427 19.8027 31.2501 21.8747 31.2501H21.8759C21.9122 31.2502 21.9476 31.2616 21.9772 31.2825C22.0069 31.3034 22.0294 31.333 22.0418 31.3671C22.0541 31.4013 22.0557 31.4384 22.0463 31.4734C22.0369 31.5085 22.0169 31.5398 21.9891 31.5632C21.8842 31.6513 21.7829 31.7442 21.6852 31.8418C20.9969 32.53 20.54 33.4154 20.3778 34.3751H19.531C18.8033 34.3751 18.0855 34.2056 17.4347 33.8802C16.7838 33.5547 16.2176 33.0822 15.781 32.5001L15.7805 32.4994C15.4896 32.1115 15.1123 31.7967 14.6786 31.5798C14.2449 31.363 13.7666 31.2501 13.2817 31.2501H13.281C13.0738 31.2501 12.8751 31.3324 12.7285 31.4789C12.582 31.6254 12.4997 31.8241 12.4997 32.0313C12.4997 32.2385 12.582 32.4372 12.7285 32.5837C12.8751 32.7303 13.0738 32.8126 13.281 32.8126C13.5192 32.8126 13.7534 32.8743 13.9607 32.9917C14.168 33.109 14.3414 33.2781 14.464 33.4824L14.5853 33.6844C15.1406 34.61 15.9261 35.3759 16.8654 35.9077C17.8047 36.4394 18.8657 36.7189 19.945 36.7188H20.3122V39.3369Z" fill="white"/>
</g>
<defs>
<clipPath id="clip0">
<rect width="50" height="50" fill="white"/>
</clipPath>
</defs>
</svg>
