<svg width="50" height="50" viewBox="0 0 50 50" fill="none" xmlns="http://www.w3.org/2000/svg">
<path d="M24.9999 0C38.8061 0 50 11.1937 50 25.0001C50 38.8064 38.8063 50 25.0001 50C11.1939 50 0 38.8063 0 25.0001C0 11.1939 11.1922 0 24.9999 0Z" fill="#0059B2"/>
<path d="M33.6282 10.9344H16.3705C13.3721 10.9344 10.9346 13.3735 10.9346 16.3704V33.6298C10.9346 36.6283 13.3736 39.0658 16.3705 39.0658H33.63C36.6284 39.0658 39.0659 36.6267 39.0659 33.6298V16.3704C39.0658 13.3735 36.6267 10.9344 33.6282 10.9344ZM35.3408 14.0798L35.9565 14.0783V18.747L31.2534 18.7626L31.2377 14.0939C31.2377 14.0939 35.3408 14.0798 35.3408 14.0798ZM25.0003 20.2938C28.9018 20.2938 29.7064 23.9563 29.7064 25.0015C29.7064 27.5937 27.594 29.7061 25.0003 29.7061C22.405 29.7061 20.2941 27.5937 20.2941 25.0015C20.2924 23.9563 21.0987 20.2938 25.0003 20.2938ZM35.9831 33.2892C35.9831 34.7752 34.7753 35.9845 33.2862 35.9845H16.6611C15.1736 35.9845 13.9642 34.7767 13.9642 33.2892V21.8689H17.8704C17.5079 22.761 17.3032 23.9798 17.3032 25.0017C17.3032 29.2424 20.7532 32.6939 24.9954 32.6939C29.2377 32.6939 32.686 29.2424 32.686 25.0017C32.686 23.9798 32.4812 22.761 32.1203 21.8689H35.9796V33.2892H35.9831Z" fill="white"/>
</svg>
