<svg width="50" height="50" viewBox="0 0 50 50" fill="none" xmlns="http://www.w3.org/2000/svg">
<g clip-path="url(#clip0)">
<path fill-rule="evenodd" clip-rule="evenodd" d="M37.5 50H12.5C9.18484 49.9999 6.0055 48.6828 3.66133 46.3387C1.31715 43.9945 0.000145029 40.8152 0 37.5L0 12.5C0.000145029 9.18484 1.31715 6.0055 3.66133 3.66133C6.0055 1.31715 9.18484 0.000145029 12.5 0L37.5 0C40.8152 0 43.9946 1.31696 46.3388 3.66117C48.683 6.00537 50 9.18479 50 12.5V37.5C50 40.8152 48.683 43.9946 46.3388 46.3388C43.9946 48.683 40.8152 50 37.5 50Z" fill="#0059B2"/>
<path fill-rule="evenodd" clip-rule="evenodd" d="M23.4375 14.0625H37.5C39.3026 14.0624 41.0362 13.37 42.343 12.1284C43.6498 10.8868 44.4298 9.19082 44.5221 7.39063C44.6143 5.59043 44.0117 3.82356 42.8387 2.45489C41.6657 1.08623 40.0119 0.220298 38.2187 0.0359375C37.9797 0.0226562 37.743 0 37.5 0H12.5C9.18484 0.000145029 6.0055 1.31715 3.66133 3.66133C1.31715 6.0055 0.000145029 9.18484 0 12.5L0 37.5C0.000145034 31.284 2.46949 25.3227 6.86485 20.9273C11.2602 16.532 17.2215 14.0626 23.4375 14.0625" fill="#3399FF"/>
<path fill-rule="evenodd" clip-rule="evenodd" d="M37.5 25C35.0277 25 32.611 25.7331 30.5554 27.1066C28.4998 28.4801 26.8976 30.4324 25.9515 32.7165C25.0054 35.0005 24.7579 37.5139 25.2402 39.9386C25.7225 42.3634 26.913 44.5907 28.6612 46.3388C30.4093 48.087 32.6366 49.2775 35.0614 49.7598C37.4861 50.2421 39.9995 49.9946 42.2836 49.0485C44.5676 48.1024 46.5199 46.5002 47.8934 44.4446C49.2669 42.389 50 39.9723 50 37.5V12.5C50 15.8152 48.683 18.9946 46.3388 21.3388C43.9946 23.683 40.8152 25 37.5 25Z" fill="#0F4B9B"/>
<path d="M14.0625 19.5312H10.9375C10.0746 19.5312 9.375 20.2308 9.375 21.0938V39.0625C9.375 39.9254 10.0746 40.625 10.9375 40.625H14.0625C14.9254 40.625 15.625 39.9254 15.625 39.0625V21.0938C15.625 20.2308 14.9254 19.5312 14.0625 19.5312Z" fill="white"/>
<path d="M12.5 16.4062C14.6574 16.4062 16.4062 14.6574 16.4062 12.5C16.4062 10.3426 14.6574 8.59375 12.5 8.59375C10.3426 8.59375 8.59375 10.3426 8.59375 12.5C8.59375 14.6574 10.3426 16.4062 12.5 16.4062Z" fill="white"/>
<path fill-rule="evenodd" clip-rule="evenodd" d="M26.5625 22.375C27.1925 21.2737 28.1024 20.3584 29.1999 19.7218C30.2974 19.0852 31.5437 18.75 32.8125 18.75C36.7867 18.75 40.625 21.0938 40.625 27.3438V39.0625C40.6251 39.2677 40.5847 39.4709 40.5062 39.6605C40.4277 39.8501 40.3126 40.0224 40.1675 40.1675C40.0224 40.3126 39.8501 40.4277 39.6605 40.5062C39.4709 40.5847 39.2677 40.6251 39.0625 40.625H35.9375C35.7323 40.6251 35.5291 40.5847 35.3395 40.5062C35.1499 40.4277 34.9776 40.3126 34.8325 40.1675C34.6874 40.0224 34.5723 39.8501 34.4938 39.6605C34.4153 39.4709 34.3749 39.2677 34.375 39.0625V28.125C34.375 27.089 33.9634 26.0954 33.2309 25.3629C32.4983 24.6303 31.5048 24.2188 30.4688 24.2188C29.4327 24.2188 28.4392 24.6303 27.7066 25.3629C26.9741 26.0954 26.5625 27.089 26.5625 28.125V39.0625C26.5626 39.2677 26.5222 39.4709 26.4437 39.6605C26.3652 39.8501 26.2501 40.0224 26.105 40.1675C25.9599 40.3126 25.7876 40.4277 25.598 40.5062C25.4084 40.5847 25.2052 40.6251 25 40.625H21.875C21.6698 40.6251 21.4666 40.5847 21.277 40.5062C21.0874 40.4277 20.9151 40.3126 20.77 40.1675C20.6249 40.0224 20.5098 39.8501 20.4313 39.6605C20.3528 39.4709 20.3124 39.2677 20.3125 39.0625V21.0938C20.3124 20.8885 20.3528 20.6853 20.4313 20.4957C20.5098 20.3061 20.6249 20.1339 20.77 19.9888C20.9151 19.8437 21.0874 19.7286 21.277 19.6501C21.4666 19.5716 21.6698 19.5312 21.875 19.5312H25C25.2052 19.5312 25.4084 19.5716 25.598 19.6501C25.7876 19.7286 25.9599 19.8437 26.105 19.9888C26.2501 20.1339 26.3652 20.3061 26.4437 20.4957C26.5222 20.6853 26.5626 20.8885 26.5625 21.0938V22.375Z" fill="white"/>
</g>
<defs>
<clipPath id="clip0">
<rect width="50" height="50" fill="white"/>
</clipPath>
</defs>
</svg>
