
        <svg xmlns="http://www.w3.org/2000/svg" xmlns:xlink="http://www.w3.org/1999/xlink" version="1.1" width="3176.470588235294" height="536.9450490022748" viewBox="0 0 3176.470588235294 536.9450490022748">
			
			<g transform="scale(8.823529411764707) translate(10, 10)">
				<defs id="SvgjsDefs1760"><linearGradient id="SvgjsLinearGradient1763"><stop id="SvgjsStop1764" stop-color="#51504f" offset="0"/><stop id="SvgjsStop1765" stop-color="#939598" offset="0.5"/><stop id="SvgjsStop1766" stop-color="#51504f" offset="1"/></linearGradient></defs><g id="SvgjsG1761" featureKey="K5GtsI-0" transform="matrix(2.7979042530059814,0,0,2.7979042530059814,-1.0054968015686778,-16.000514320614613)" fill="#fff"><path d="M7.56 5.720000000000001 c4.82 0 7.22 3.7 7.18 7.36 c-0.04 3.62 -2.26 7.24 -7.18 7.24 s-7.2 -3.54 -7.2 -7.22 s2.36 -7.38 7.2 -7.38 z M7.56 8.12 c-3.3 0 -4.66 2.66 -4.6 5.02 c0.06 2.3 1.3 4.76 4.6 4.76 s4.54 -2.48 4.58 -4.78 c0.04 -2.36 -1.28 -5 -4.58 -5 z M36.22 6 l-5.04 14 l-2.24 0 l-1.74 -4.4 l-1.48 -4.42 l-1.46 4.46 l-1.7 4.36 l-2.24 0 l-5.14 -14 l2.96 0 l3.3 10.1 l3.4 -10.1 l1.72 0 l3.5 10.1 l3.2 -10.1 l2.96 0 z M48.28 17.4 l0 2.6 l-10.48 0 l0 -14 l10.48 0 l0 2.56 l-7.86 0 l0 3.22 l7.58 0 l0 2.46 l-7.58 0 l0 3.16 l7.86 0 z M59.940000000000005 14.68 l0 -8.7 l2.64 0 l0 14.02 l-1.64 0 l0 0.02 l-7.36 -9.46 l0 9.44 l-2.64 0 l0 -14 l2.14 0 z M81.46000000000002 19.82 l0 0.18 l-3.14 0 l-4.08 -4.68 l-2.54 0 l0 4.68 l-2.64 0 l0 -14.02 c2.22 0 4.44 0.02 6.66 0.02 c3.3 0.02 5.04 2.22 5.04 4.64 c0 1.92 -0.88 3.86 -3.54 4.4 z M75.72000000000001 8.46 l-4.02 0 l0 4.48 l4.02 0 c1.68 0 2.4 -1.12 2.4 -2.24 s-0.74 -2.24 -2.4 -2.24 z M89.12000000000002 5.720000000000001 c4.82 0 7.22 3.7 7.18 7.36 c-0.04 3.62 -2.26 7.24 -7.18 7.24 s-7.2 -3.54 -7.2 -7.22 s2.36 -7.38 7.2 -7.38 z M89.12000000000002 8.12 c-3.3 0 -4.66 2.66 -4.6 5.02 c0.06 2.3 1.3 4.76 4.6 4.76 s4.54 -2.48 4.58 -4.78 c0.04 -2.36 -1.28 -5 -4.58 -5 z M101.04000000000002 20 l0 -11.6 l-4.44 0 l0 -2.4 l11.52 0 l0 2.4 l-4.44 0 l0 11.6 l-2.64 0 z M121.88000000000002 20.02 l-2.62 0 l0 -5.66 l-6.88 0 l0 5.66 l-2.64 0 l0 -14 l2.64 0 l0 5.9 l6.88 0 l0 -5.9 l2.62 0 l0 14 z"/></g>
			</g>
		</svg>
	