<svg width="250" height="250" viewBox="0 0 250 250" fill="none" xmlns="http://www.w3.org/2000/svg">
<path d="M0 34.3094V186.514C0 194.231 6.07491 200.508 13.5422 200.508H209.337C216.805 200.508 222.879 194.231 222.879 186.514V34.3094H0Z" fill="#141B73"/>
<path d="M0 34.3094V186.514C0 194.231 6.07491 200.508 13.5422 200.508H111.439V34.3094H0Z" fill="#004199"/>
<path d="M222.879 16.9603C222.879 9.493 216.805 3.41809 209.337 3.41809H13.5422C6.07491 3.41809 0 9.493 0 16.9603V39.6749H222.879V16.9603Z" fill="#3399FF"/>
<path d="M13.5422 3.41809C6.07491 3.41809 0 9.493 0 16.9603V39.6749H111.439V3.41809H13.5422Z" fill="#66CCFF"/>
<path d="M34.5785 22.7758C34.5785 18.7818 31.3398 15.5431 27.3439 15.5431C23.3481 15.5431 20.1094 18.7818 20.1094 22.7758C20.1094 26.7717 23.3481 30.0103 27.3439 30.0103C31.3398 30.0103 34.5785 26.7717 34.5785 22.7758Z" fill="#176EE5"/>
<path d="M181.438 22.7758C181.438 18.7818 178.2 15.5431 174.204 15.5431C170.208 15.5431 166.969 18.7818 166.969 22.7758C166.969 26.7717 170.208 30.0103 174.204 30.0103C178.2 30.0103 181.438 26.7717 181.438 22.7758V22.7758Z" fill="#C2C9CC"/>
<path d="M202.77 22.7758C202.77 18.7818 199.531 15.5431 195.535 15.5431C191.539 15.5431 188.301 18.7818 188.301 22.7758C188.301 26.7717 191.539 30.0103 195.535 30.0103C199.531 30.0103 202.77 26.7717 202.77 22.7758V22.7758Z" fill="#141B73"/>
<path d="M157.143 129.334H65.7348C63.2515 129.334 61.2373 127.319 61.2373 124.836V112.219C61.2373 109.736 63.2515 107.723 65.7348 107.723H157.143C159.626 107.723 161.64 109.736 161.64 112.219V124.836C161.64 127.319 159.626 129.334 157.143 129.334Z" fill="#66CCFF"/>
<path d="M91.2512 159.458H68.7635C64.7486 159.458 61.4946 156.204 61.4946 152.189C61.4946 148.174 64.7486 144.918 68.7635 144.918H91.2512C95.2661 144.918 98.522 148.174 98.522 152.189C98.522 156.204 95.2661 159.458 91.2512 159.458Z" fill="#3399FF"/>
<path d="M88.5788 86.1627H85.4603C81.4473 86.1627 78.1914 82.9088 78.1914 78.8938C78.1914 74.8788 81.4473 71.6249 85.4603 71.6249H88.5788C92.5938 71.6249 95.8496 74.8788 95.8496 78.8938C95.8496 82.9088 92.5938 86.1627 88.5788 86.1627Z" fill="#141B73"/>
<path d="M161.171 86.1627H157.984C153.969 86.1627 150.715 82.9088 150.715 78.8938C150.715 74.8788 153.969 71.6249 157.984 71.6249H161.171C165.186 71.6249 168.442 74.8788 168.442 78.8938C168.442 82.9088 165.188 86.1627 161.171 86.1627V86.1627Z" fill="#0059B2"/>
<path d="M108.614 86.1627H105.247C101.232 86.1627 97.9785 82.9088 97.9785 78.8938C97.9785 74.8788 101.232 71.6249 105.247 71.6249H108.614C112.627 71.6249 115.883 74.8788 115.883 78.8938C115.883 82.9088 112.627 86.1627 108.614 86.1627Z" fill="#C2C9CC"/>
<path d="M68.7655 86.1627H62.5799C58.5669 86.1627 55.311 82.9088 55.311 78.8938V61.7124C55.311 57.6974 58.5669 54.4435 62.5799 54.4435H65.6737C69.6886 54.4435 72.9426 57.6974 72.9426 61.7124C72.9426 64.1729 71.72 66.3472 69.8508 67.6633V71.705C73.3507 72.2276 76.0363 75.2469 76.0363 78.8938C76.0344 82.9088 72.7804 86.1627 68.7655 86.1627Z" fill="#176EE5"/>
<path d="M141.577 86.1627C137.562 86.1627 134.308 82.9088 134.308 78.8938V67.5947C134.308 63.5797 137.562 60.3239 141.577 60.3239C145.592 60.3239 148.847 63.5797 148.847 67.5947V78.8938C148.845 82.9088 145.592 86.1627 141.577 86.1627V86.1627Z" fill="#141B73"/>
<path d="M124.821 97.0403C120.806 97.0403 117.552 93.7863 117.552 89.7714V78.4722C117.552 74.4573 120.806 71.2014 124.821 71.2014C128.836 71.2014 132.091 74.4573 132.091 78.4722V89.7714C132.091 93.7863 128.836 97.0403 124.821 97.0403Z" fill="#0059B2"/>
<path d="M243.204 188.906L248.75 180.712C250.12 178.688 250.381 176.111 249.447 173.855L243.479 159.447C242.544 157.19 240.537 155.554 238.138 155.092L228.418 153.217L226.543 143.501C226.082 141.104 224.443 139.097 222.187 138.163L207.777 132.195C205.52 131.262 202.945 131.521 200.922 132.891L192.722 138.437L184.522 132.891C182.499 131.521 179.924 131.262 177.667 132.195L163.257 138.163C160.999 139.097 159.363 141.104 158.901 143.501L157.026 153.217L147.306 155.092C144.907 155.554 142.902 157.19 141.966 159.447L135.997 173.855C135.063 176.111 135.324 178.688 136.694 180.712L142.24 188.906L136.694 197.1C135.324 199.123 135.063 201.7 135.997 203.957L141.966 218.365C142.902 220.621 144.907 222.256 147.306 222.719L157.026 224.592L158.901 234.31C159.363 236.708 160.999 238.714 163.257 239.649L177.667 245.615C179.924 246.55 182.499 246.288 184.522 244.921L192.722 239.374L200.922 244.921C202.142 245.747 203.563 246.17 204.994 246.17C205.936 246.17 206.88 245.987 207.775 245.615L222.187 239.649C224.443 238.714 226.08 236.708 226.543 234.31L228.418 224.594L238.138 222.719C240.535 222.256 242.542 220.621 243.477 218.365L249.447 203.957C250.381 201.7 250.12 199.123 248.75 197.1L243.204 188.906Z" fill="#C2C9CC"/>
<path d="M108.614 71.6249H105.247C101.232 71.6249 97.9785 74.8788 97.9785 78.8938C97.9785 82.9088 101.232 86.1646 105.247 86.1646H108.614C109.615 86.1646 110.571 85.9605 111.439 85.5943V72.1952C110.571 71.8271 109.615 71.6249 108.614 71.6249Z" fill="#C2C9CC"/>
<path d="M65.7349 107.723C63.2515 107.723 61.2393 109.736 61.2393 112.221V124.836C61.2393 127.319 63.2515 129.334 65.7349 129.334H111.439V107.723H65.7349Z" fill="#B2E5FF"/>
<path d="M184.522 132.891C182.499 131.521 179.924 131.262 177.667 132.195L163.255 138.163C160.999 139.097 159.363 141.104 158.899 143.501L157.026 153.217L147.306 155.092C144.907 155.554 142.9 157.19 141.966 159.447L135.998 173.855C135.061 176.111 135.322 178.688 136.692 180.712L142.238 188.906L136.692 197.1C135.322 199.123 135.061 201.7 135.998 203.957L141.966 218.365C142.9 220.621 144.907 222.256 147.306 222.719L157.026 224.592L158.899 234.31C159.363 236.708 160.999 238.714 163.255 239.649L177.667 245.615C179.924 246.55 182.499 246.288 184.522 244.921L192.722 239.374V138.437L184.522 132.891Z" fill="#DAE3E5"/>
<path d="M208.967 188.906C208.967 179.937 201.692 172.667 192.722 172.667C183.75 172.667 176.477 179.937 176.477 188.906C176.477 197.874 183.75 205.145 192.722 205.145C201.692 205.145 208.967 197.874 208.967 188.906V188.906Z" fill="#0059B2"/>
<path d="M176.477 188.906C176.477 197.874 183.75 205.145 192.72 205.145V172.667C183.75 172.667 176.477 179.937 176.477 188.906Z" fill="#176EE5"/>
<path d="M192.722 212.416C179.756 212.416 169.208 201.868 169.208 188.906C169.208 175.943 179.756 165.398 192.722 165.398C205.687 165.398 216.236 175.943 216.236 188.906C216.236 201.868 205.687 212.416 192.722 212.416ZM192.722 179.935C187.773 179.935 183.746 183.96 183.746 188.906C183.746 193.851 187.773 197.876 192.722 197.876C197.67 197.876 201.696 193.851 201.696 188.906C201.696 183.96 197.67 179.935 192.722 179.935Z" fill="#141B73"/>
<path d="M192.72 197.876C187.773 197.876 183.746 193.851 183.746 188.906C183.746 183.96 187.773 179.935 192.72 179.935V165.398C179.756 165.398 169.207 175.943 169.207 188.906C169.207 201.868 179.756 212.414 192.72 212.414V197.876Z" fill="#004199"/>
</svg>
