<svg width="50" height="50" viewBox="0 0 50 50" fill="none" xmlns="http://www.w3.org/2000/svg">
<g clip-path="url(#clip0)">
<path d="M20.807 5.45489C22.4196 3.05463 24.6646 1.56592 27.1474 1.56592C30.448 1.56592 33.3276 4.19513 34.8612 8.09824C36.1938 7.24768 37.6689 6.77449 39.2208 6.77449C45.1738 6.77449 50 13.7292 50 22.3077C50 30.8872 45.1738 37.8418 39.2208 37.8418C38.5078 37.8424 37.7965 37.7412 37.0976 37.5396C35.7472 40.9808 33.1738 43.3058 30.2201 43.3058C28.9836 43.3058 27.8141 42.8978 26.7728 42.1723C25.4039 46.7724 22.2144 49.9979 18.4971 49.9979C14.6261 49.9979 11.3269 46.4987 10.0606 41.5913C9.50716 41.7592 8.93378 41.8467 8.34545 41.8467C3.73649 41.8468 0 36.454 0 29.8006C0 25.3419 1.67878 21.4489 4.17307 19.3661C3.65956 17.6781 3.37392 15.815 3.37392 13.8563C3.37392 6.20471 7.72222 0.0020752 13.0855 0.0020752C16.2343 0.0020752 19.0328 2.14086 20.807 5.45489Z" fill="#0059B2"/>
<path d="M7.2403 25.9287C7.20897 26.0458 7.25171 26.0702 7.26167 26.0905C7.35566 26.1882 7.45116 26.2585 7.5473 26.3368C8.05725 26.7234 8.53878 26.8363 9.04232 26.8363C10.0679 26.8363 10.7047 26.0569 10.7047 24.8023V24.7779C10.7047 23.6179 9.98605 23.1967 9.31154 22.8925L9.22395 22.8518C8.7154 22.6157 8.27667 22.4123 8.27667 21.934V21.9086C8.27667 21.4996 8.53307 21.1983 8.93051 21.1983C9.3721 21.1983 9.89631 21.408 10.2339 21.6745C10.2339 21.6745 10.3329 21.7661 10.3692 21.6288C10.3891 21.5555 10.5601 20.8982 10.5779 20.827C10.5972 20.7496 10.563 20.6926 10.5281 20.6621C10.1428 20.3273 9.60998 20.0984 9.05874 20.0984L8.95619 20.0994C8.01746 20.0994 7.36222 20.9093 7.36222 22.0703V22.0947C7.36222 23.3188 8.08513 23.7156 8.7625 23.9924L8.87145 24.0402C9.36504 24.2569 9.79026 24.4431 9.79026 24.9397V24.9641C9.79026 25.4179 9.51393 25.7557 9.06805 25.7557C8.89498 25.7557 8.34298 25.7506 7.74685 25.2123C7.67488 25.1522 7.63288 25.1085 7.57733 25.0607C7.54815 25.0343 7.47478 24.9884 7.44275 25.1268L7.2403 25.9287V25.9287ZM22.255 25.9287C22.2236 26.0458 22.2664 26.0702 22.2763 26.0905C22.3703 26.1882 22.4658 26.2585 22.5619 26.3368C23.0719 26.7234 23.5534 26.8363 24.0569 26.8363C25.0826 26.8363 25.7193 26.0569 25.7193 24.8023V24.7779C25.7193 23.6179 25.0007 23.1967 24.3262 22.8925L24.2386 22.8518C23.73 22.6157 23.2912 22.4123 23.2912 21.934V21.9086C23.2912 21.4996 23.5476 21.1983 23.9451 21.1983C24.3867 21.1983 24.9109 21.408 25.2485 21.6745C25.2485 21.6745 25.3475 21.7661 25.3838 21.6288C25.4037 21.5555 25.5747 20.8982 25.5925 20.827C25.6118 20.7496 25.5775 20.6926 25.5427 20.6621C25.1573 20.3273 24.6246 20.0984 24.0733 20.0984L23.9707 20.0994C23.032 20.0994 22.3767 20.9093 22.3767 22.0703V22.0947C22.3767 23.3188 23.0997 23.7156 23.777 23.9924L23.886 24.0402C24.3796 24.2569 24.8055 24.4431 24.8055 24.9397V24.9641C24.8055 25.4179 24.5285 25.7557 24.0826 25.7557C23.9095 25.7557 23.3576 25.7506 22.7614 25.2123C22.6894 25.1522 22.6468 25.1105 22.5927 25.0607C22.5741 25.0434 22.4872 24.9956 22.4573 25.1268L22.255 25.9287V25.9287ZM32.5051 23.4713C32.5051 24.1805 32.4125 24.739 32.2302 25.1339C32.05 25.5246 31.7772 25.7149 31.3969 25.7149C31.0159 25.7149 30.7445 25.5256 30.5671 25.1339C30.3876 24.7401 30.2965 24.1805 30.2965 23.4713C30.2965 22.7631 30.3876 22.2055 30.5671 21.8147C30.7445 21.4281 31.0159 21.2399 31.3969 21.2399C31.7772 21.2399 32.05 21.4281 32.2309 21.8147C32.4126 22.2054 32.5051 22.7631 32.5051 23.4713V23.4713ZM33.3612 22.1567C33.2772 21.7506 33.1461 21.3925 32.9717 21.0944C32.7971 20.7952 32.5764 20.5551 32.3142 20.3801C32.0528 20.2061 31.7438 20.1176 31.3969 20.1176C31.0493 20.1176 30.7402 20.2061 30.4788 20.3801C30.2167 20.5551 29.9959 20.7953 29.8207 21.0944C29.6469 21.3935 29.5159 21.7517 29.4311 22.1567C29.3478 22.5606 29.3058 23.0021 29.3058 23.4713C29.3058 23.9404 29.3478 24.383 29.4311 24.7859C29.5159 25.1908 29.6462 25.5491 29.8215 25.8481C29.9959 26.1473 30.2175 26.3864 30.4789 26.5563C30.7409 26.7262 31.0493 26.8127 31.397 26.8127C31.7438 26.8127 32.0522 26.7262 32.3143 26.5563C32.5757 26.3864 32.7971 26.1472 32.9717 25.8481C33.1462 25.55 33.2772 25.1918 33.3613 24.7859C33.4454 24.382 33.4874 23.9393 33.4874 23.4713C33.4874 23.0032 33.4453 22.5606 33.3612 22.1567V22.1567ZM40.3915 25.5255C40.363 25.4064 40.2826 25.4512 40.2826 25.4512C40.1579 25.5194 40.0254 25.5824 39.8844 25.614C39.7412 25.6454 39.5838 25.6618 39.415 25.6618C39.0005 25.6618 38.6715 25.4858 38.4357 25.1378C38.1993 24.7898 38.0668 24.2272 38.0682 23.466C38.0696 22.7731 38.1864 22.2521 38.3965 21.8554C38.6053 21.4606 38.9229 21.258 39.3467 21.258C39.7 21.258 39.9692 21.316 40.2512 21.4432C40.2512 21.4432 40.3188 21.4849 40.3509 21.3588C40.4256 21.0616 40.4812 20.849 40.561 20.5224C40.5838 20.4298 40.5282 20.3901 40.5083 20.3789C40.3972 20.3168 40.1351 20.2162 39.9371 20.1734C39.7519 20.1327 39.5354 20.1113 39.2946 20.1113C38.9349 20.1113 38.6144 20.1988 38.3402 20.3739C38.0667 20.5478 37.8345 20.7879 37.6508 21.0872C37.467 21.3863 37.3274 21.7444 37.2342 22.1494C37.1416 22.5533 37.0946 22.9969 37.0946 23.466C37.0946 24.4805 37.2862 25.3005 37.6644 25.9009C38.0433 26.5033 38.6124 26.8095 39.3545 26.8095C39.7933 26.8095 40.2434 26.6824 40.5668 26.5002C40.5668 26.5002 40.6287 26.4575 40.6017 26.3548L40.3915 25.5255V25.5255ZM41.8894 22.7919C41.93 22.3981 42.0063 22.0704 42.1238 21.8151C42.3011 21.4274 42.5718 21.2148 42.9521 21.2148C43.3325 21.2148 43.5839 21.4284 43.7641 21.8151C43.8837 22.0704 43.9357 22.4124 43.9564 22.7919H41.8894ZM44.7719 21.9259C44.6992 21.5342 44.519 21.1384 44.4008 20.9572C44.2142 20.6703 44.0319 20.4699 43.851 20.3579C43.6145 20.2134 43.331 20.1178 43.0205 20.1178C42.6587 20.1178 42.3303 20.2044 42.064 20.3834C41.7969 20.5625 41.5726 20.8067 41.3966 21.111C41.2206 21.4141 41.0882 21.7754 41.0041 22.1854C40.9194 22.5935 40.8766 23.0381 40.8766 23.5071C40.8766 23.9843 40.9208 24.429 41.0084 24.8288C41.0968 25.2318 41.2377 25.5869 41.4286 25.8809C41.6188 26.177 41.8638 26.4091 42.1573 26.5707C42.4486 26.7315 42.8026 26.815 43.2092 26.8139C44.0462 26.8098 44.487 26.5433 44.6686 26.3998C44.7007 26.3744 44.7313 26.3296 44.6928 26.2014L44.5034 25.4433C44.4749 25.3304 44.3944 25.3721 44.3944 25.3721C44.1871 25.482 43.8923 25.6794 43.2049 25.6774C42.7555 25.6764 42.4222 25.4871 42.2135 25.191C41.9991 24.8878 41.8944 24.4421 41.8759 23.8133L44.774 23.8174C44.774 23.8174 44.8501 23.8154 44.8581 23.7095C44.8609 23.6649 44.9578 22.859 44.7719 21.9259V21.9259ZM18.6799 22.7919C18.7211 22.3981 18.7967 22.0704 18.9142 21.8151C19.0915 21.4274 19.3622 21.2148 19.7425 21.2148C20.1228 21.2148 20.3743 21.4284 20.5551 21.8151C20.6741 22.0704 20.7261 22.4124 20.7467 22.7919H18.6799V22.7919ZM21.5615 21.9259C21.4889 21.5342 21.3094 21.1384 21.1912 20.9572C21.0046 20.6703 20.8223 20.4699 20.6414 20.3579C20.4049 20.2134 20.1215 20.1178 19.8109 20.1178C19.4498 20.1178 19.1207 20.2044 18.8544 20.3834C18.5873 20.5625 18.3629 20.8067 18.187 21.111C18.0111 21.4141 17.8786 21.7754 17.7946 22.1854C17.7105 22.5935 17.6671 23.0381 17.6671 23.5071C17.6671 23.9843 17.7112 24.429 17.7989 24.8288C17.8872 25.2318 18.0283 25.5869 18.2191 25.8809C18.4093 26.177 18.6543 26.4091 18.9477 26.5707C19.2391 26.7315 19.593 26.815 19.9997 26.8139C20.8366 26.8098 21.2775 26.5433 21.4591 26.3998C21.4912 26.3744 21.5217 26.3296 21.4833 26.2014L21.2946 25.4433C21.2653 25.3304 21.1849 25.3721 21.1849 25.3721C20.9777 25.482 20.6835 25.6794 19.9947 25.6774C19.5461 25.6764 19.2127 25.4871 19.004 25.191C18.7896 24.8878 18.685 24.4421 18.6664 23.8133L21.5645 23.8174C21.5645 23.8174 21.6407 23.8154 21.6485 23.7095C21.6513 23.6649 21.7481 22.859 21.5615 21.9259V21.9259ZM12.4156 25.5028C12.3024 25.3735 12.2867 25.341 12.2483 25.2575C12.1913 25.1303 12.1621 24.9492 12.1621 24.7193C12.1621 24.355 12.2461 24.0935 12.4206 23.9175C12.4185 23.9186 12.6699 23.6072 13.2611 23.6183C13.6763 23.6265 14.0473 23.714 14.0473 23.714V25.5964H14.048C14.048 25.5964 13.6798 25.7093 13.2653 25.7449C12.6756 25.7958 12.4135 25.5018 12.4156 25.5028V25.5028ZM13.5687 22.5937C13.4512 22.5815 13.2988 22.5744 13.1164 22.5744C12.8679 22.5744 12.6278 22.6191 12.4028 22.7056C12.1763 22.7921 11.9726 22.9275 11.7974 23.1065C11.6224 23.2849 11.4786 23.5185 11.3772 23.7892C11.2746 24.0619 11.2226 24.3835 11.2226 24.7437C11.2226 25.11 11.2668 25.4284 11.3551 25.689C11.4434 25.9505 11.5709 26.1682 11.7333 26.3361C11.8942 26.504 12.093 26.6271 12.3237 26.7013C12.5509 26.7756 12.8087 26.8132 13.0908 26.8132C13.3878 26.8132 13.6841 26.7787 13.9711 26.7084C14.2553 26.6392 14.6043 26.5385 14.7011 26.507C14.769 26.4836 14.8367 26.4589 14.9041 26.4327C14.9761 26.4073 14.9704 26.2974 14.9704 26.2974L14.969 22.5113C14.969 21.681 14.8137 21.0654 14.5081 20.6838C14.204 20.3033 13.756 20.1109 13.177 20.1109C12.9597 20.1109 12.61 20.1537 12.4006 20.2137C12.4006 20.2137 11.7675 20.3888 11.5067 20.6798C11.5067 20.6798 11.4498 20.7307 11.4811 20.8446L11.6863 21.6322C11.7119 21.734 11.781 21.6993 11.781 21.6993C11.781 21.6993 11.8031 21.6871 11.8288 21.6657C12.3865 21.2323 13.0916 21.2455 13.0916 21.2455C13.405 21.2455 13.6457 21.3351 13.8081 21.5131C13.9662 21.686 14.0466 21.9475 14.0466 22.499V22.674C13.7973 22.6232 13.5687 22.5937 13.5687 22.5937V22.5937ZM36.9432 20.4605C36.9652 20.3668 36.9189 20.322 36.8997 20.3119C36.8506 20.2844 36.6041 20.2101 36.4139 20.1928C36.05 20.1613 35.8478 20.2488 35.6668 20.3648C35.4873 20.4808 35.2879 20.668 35.1768 20.8807V20.377C35.1768 20.3068 35.1419 20.2508 35.0934 20.2508H34.3506C34.3022 20.2508 34.2673 20.3067 34.2673 20.377V26.5522C34.2673 26.6214 34.3072 26.6784 34.3556 26.6784H35.117C35.1403 26.6782 35.1626 26.6648 35.179 26.6412C35.1954 26.6175 35.2046 26.5855 35.2046 26.5522V23.4672C35.2046 23.0531 35.2366 22.64 35.3008 22.3805C35.3634 22.1241 35.4489 21.9186 35.5543 21.771C35.6604 21.6245 35.7808 21.5217 35.9126 21.4638C36.0471 21.4047 36.196 21.3854 36.3014 21.3854C36.4531 21.3854 36.6198 21.4413 36.6198 21.4413C36.6753 21.4505 36.7067 21.4016 36.7252 21.3294C36.7751 21.1401 36.9161 20.5734 36.9432 20.4605" fill="white"/>
<path d="M29.7973 17.5984C29.7047 17.5577 29.6206 17.5302 29.5109 17.5008C29.3998 17.4723 29.2673 17.458 29.1171 17.458C28.5928 17.458 28.1797 17.6696 27.8898 18.0868C27.6013 18.502 27.4054 19.1338 27.3071 19.9652L27.2715 20.2449H26.6134C26.6134 20.2449 26.5336 20.2409 26.5165 20.3651L26.409 21.2269C26.4011 21.3083 26.4261 21.3601 26.503 21.3601H27.1433L26.4937 26.5413C26.4431 26.9585 26.3847 27.3014 26.3199 27.5618C26.2565 27.8182 26.1946 28.0105 26.1177 28.1509C26.0436 28.2853 25.9738 28.385 25.8526 28.4429C25.7529 28.4908 25.6376 28.5132 25.5115 28.5132C25.4417 28.5132 25.3484 28.4968 25.2793 28.4765C25.2109 28.4571 25.1746 28.4358 25.1226 28.4042C25.1226 28.4042 25.0478 28.3636 25.0179 28.4704C24.9944 28.5589 24.8234 29.2294 24.8028 29.3119C24.7828 29.3943 24.8113 29.4584 24.8476 29.4777C24.9331 29.5205 24.9965 29.5489 25.1126 29.5886C25.2736 29.6426 25.4096 29.6456 25.5371 29.6456C25.8034 29.6456 26.047 29.5917 26.2486 29.4879C26.4509 29.3831 26.6275 29.2009 26.7842 28.9547C26.9531 28.6881 27.0592 28.4093 27.1604 28.0278C27.2608 27.6513 27.347 27.1833 27.4153 26.6379L28.0685 21.3601H29.0229C29.0229 21.3601 29.1034 21.3642 29.1198 21.2391L29.228 20.3783C29.2352 20.2959 29.211 20.245 29.1333 20.245H28.2066C28.2116 20.2156 28.2536 19.7494 28.3598 19.311C28.4054 19.1248 28.4908 18.9732 28.5628 18.8693C28.6341 18.7676 28.716 18.6954 28.8057 18.6536C28.8976 18.6109 29.0023 18.5906 29.117 18.5906C29.2039 18.5906 29.29 18.6048 29.3549 18.6241C29.4446 18.6516 29.4795 18.6659 29.5031 18.6761C29.5978 18.7168 29.6106 18.6771 29.6291 18.612L29.8507 17.7431C29.8734 17.6493 29.8172 17.6096 29.7973 17.5984V17.5984ZM16.85 26.5525C16.85 26.6217 16.8151 26.6777 16.7667 26.6777H15.9982C15.9497 26.6777 15.9155 26.6217 15.9155 26.5525V17.7165C15.9155 17.6473 15.9497 17.5914 15.9982 17.5914H16.7667C16.8151 17.5914 16.85 17.6473 16.85 17.7165V26.5525Z" fill="white"/>
</g>
<defs>
<clipPath id="clip0">
<rect width="50" height="50" fill="white"/>
</clipPath>
</defs>
</svg>
