<svg width="250" height="250" viewBox="0 0 250 250" fill="none" xmlns="http://www.w3.org/2000/svg">
<path d="M250 29.7852C250 25.7397 246.721 22.4609 242.676 22.4609H7.32422C3.27873 22.4609 0 25.7397 0 29.7852V152.119H250V29.7852Z" fill="#141B73"/>
<path d="M7.32422 22.4609C3.27873 22.4609 0 25.7397 0 29.7852V152.119H125V22.4609H7.32422Z" fill="#004199"/>
<path d="M170.988 129.471C168.43 129.471 166.052 128.136 164.722 125.937L139.183 83.7193L115.126 110.567C113.689 112.171 111.626 113.062 109.467 113.001C107.315 112.942 105.297 111.937 103.952 110.256L79.8702 80.1678L54.6322 122.177C52.5475 125.645 48.048 126.766 44.5824 124.683C41.1148 122.601 39.9914 118.099 42.0761 114.632L72.7348 63.6006C73.9689 61.5464 76.1299 60.2265 78.5217 60.0663C80.9097 59.9061 83.2329 60.9246 84.7302 62.7957L109.987 94.3528L134.874 66.5761C136.423 64.848 138.699 63.9554 141.012 64.1728C143.322 64.3883 145.395 65.6872 146.597 67.6728L170.448 107.103L195.124 58.7979C196.964 55.1949 201.378 53.7682 204.979 55.6069C208.582 57.4475 210.011 61.8592 208.17 65.4622L177.511 125.479C176.302 127.844 173.906 129.37 171.251 129.465C171.162 129.469 171.074 129.471 170.988 129.471Z" fill="#176EE5"/>
<path d="M109.985 94.3527L84.7302 62.7976C83.233 60.9245 80.9098 59.906 78.5218 60.0662C76.13 60.2265 73.9671 61.5463 72.733 63.6025L42.0743 114.634C39.9915 118.099 41.113 122.601 44.5806 124.683C48.0481 126.766 52.5475 125.645 54.6323 122.177L79.8703 80.1678L103.952 110.258C105.297 111.938 107.315 112.942 109.467 113.003C111.626 113.062 113.688 112.171 115.126 110.569L125 99.5484V77.5967L109.985 94.3527Z" fill="#3399FF"/>
<path d="M150.905 165.667H99.0942C95.0488 165.667 91.77 168.945 91.77 172.991V208.534C91.77 212.58 95.0488 215.859 99.0942 215.859H150.905C154.951 215.859 158.23 212.58 158.23 208.534V172.991C158.23 168.945 154.951 165.667 150.905 165.667Z" fill="#B6BDBF"/>
<path d="M99.0942 165.667C95.0488 165.667 91.77 168.945 91.77 172.991V208.534C91.77 212.58 95.0488 215.859 99.0942 215.859H125V165.667H99.0942Z" fill="#C2C9CC"/>
<path d="M178.652 194.599H71.3481C67.3027 194.599 64.0239 197.88 64.0239 201.923V220.52C64.0239 224.564 67.3027 227.844 71.3481 227.844H178.652C182.697 227.844 185.976 224.564 185.976 220.52V201.923C185.976 197.88 182.697 194.599 178.652 194.599Z" fill="#DAE3E5"/>
<path d="M0 152.119V172.991C0 177.036 3.27873 180.315 7.32422 180.315H242.676C246.721 180.315 250 177.036 250 172.991V152.119H0Z" fill="#DAE3E5"/>
<path d="M214.382 62.1299C214.382 55.1013 208.681 49.406 201.647 49.406C194.613 49.406 188.91 55.1013 188.91 62.1299C188.91 69.1566 194.613 74.8539 201.647 74.8539C208.681 74.8539 214.382 69.1566 214.382 62.1299Z" fill="#3399FF"/>
<path d="M183.724 122.147C183.724 115.118 178.023 109.421 170.988 109.421C163.954 109.421 158.251 115.118 158.251 122.147C158.251 129.173 163.954 134.871 170.988 134.871C178.023 134.871 183.724 129.173 183.724 122.147Z" fill="#3399FF"/>
<path d="M153.065 71.4645C153.065 64.4379 147.364 58.7406 140.33 58.7406C133.295 58.7406 127.592 64.4379 127.592 71.4645C127.592 78.4931 133.295 84.1904 140.33 84.1904C147.364 84.1904 153.065 78.4931 153.065 71.4645Z" fill="#3399FF"/>
<path d="M122.406 105.68C122.406 98.6518 116.705 92.9546 109.671 92.9546C102.637 92.9546 96.9336 98.6518 96.9336 105.68C96.9336 112.707 102.637 118.404 109.671 118.404C116.705 118.404 122.406 112.707 122.406 105.68Z" fill="#4DA8DA"/>
<path d="M91.749 67.3733C91.749 60.3467 86.046 54.6494 79.0117 54.6494C71.9774 54.6494 66.2764 60.3467 66.2764 67.3733C66.2764 74.4019 71.9774 80.0973 79.0117 80.0973C86.046 80.0973 91.749 74.4019 91.749 67.3733Z" fill="#4DA8DA"/>
<path d="M61.0903 118.404C61.0903 111.376 55.3873 105.68 48.353 105.68C41.3187 105.68 35.6177 111.376 35.6177 118.404C35.6177 125.431 41.3187 131.128 48.353 131.128C55.3873 131.128 61.0903 125.431 61.0903 118.404Z" fill="#4DA8DA"/>
<path d="M0 152.119V172.991C0 177.036 3.27873 180.315 7.32422 180.315H125V152.119H0Z" fill="#E6EFF2"/>
<path d="M71.3481 194.599C67.3027 194.599 64.0239 197.88 64.0239 201.923V220.52C64.0239 224.564 67.3027 227.844 71.3481 227.844H125V194.599H71.3481Z" fill="#E6EFF2"/>
</svg>
